<svg width="26" height="26" viewBox="0 0 26 26" fill="none" xmlns="http://www.w3.org/2000/svg">
<path fill-rule="evenodd" clip-rule="evenodd" d="M9.85409 25.6103C16.8199 27.3482 23.8752 23.1098 25.6105 16.1461C27.3485 9.17997 23.1082 2.12779 16.1439 0.389646C9.17963 -1.3485 2.12785 2.89182 0.389833 9.85625C-1.34818 16.8207 2.88824 23.8724 9.85409 25.6103ZM15.8731 7.86742C17.6745 8.48779 18.9916 9.41784 18.7332 11.1478L18.732 11.1487C18.5447 12.4153 17.8427 13.0282 16.9106 13.244C18.1906 13.9106 18.8414 14.9324 18.221 16.7037C17.452 18.9024 15.6226 19.088 13.1899 18.6278L12.5994 20.9938L11.1727 20.6384L11.7554 18.3042C11.386 18.2124 11.0089 18.1149 10.6189 18.0094L10.0339 20.3545L8.60909 19.9991L9.19956 17.6285L6.3265 16.903L7.03475 15.2677C7.03475 15.2677 8.08596 15.5485 8.07166 15.5277C8.47545 15.6284 8.65459 15.3652 8.72531 15.1897L10.3262 8.77016C10.3438 8.46699 10.2391 8.08478 9.66133 7.94048C9.68369 7.9254 8.62521 7.68281 8.62521 7.68281L9.00482 6.15905L11.882 6.87172L12.4654 4.52933L13.8908 4.88475L13.3188 7.18152C13.7016 7.26836 14.0866 7.35703 14.4613 7.45037L15.0312 5.16868L16.4581 5.52411L15.8731 7.86742ZM11.3588 16.3641C12.5225 16.6717 15.0671 17.3441 15.4727 15.7186L15.4732 15.7183C15.8865 14.0567 13.4191 13.503 12.2153 13.233C12.0808 13.2028 11.9622 13.1762 11.865 13.1519L11.0816 16.2921C11.1612 16.3119 11.2544 16.3366 11.3588 16.3641ZM12.4585 11.776C13.4292 12.0352 15.5465 12.6006 15.9153 11.1227L15.9142 11.1226C16.2911 9.61223 14.235 9.15652 13.2293 8.93361C13.1158 8.90845 13.0156 8.88625 12.9339 8.86584L12.2246 11.7147C12.2917 11.7315 12.3703 11.7525 12.4585 11.776Z" fill="currentColor"/>
</svg>
