<svg width="26" height="26" viewBox="0 0 26 26" fill="none" xmlns="http://www.w3.org/2000/svg">
<path fill-rule="evenodd" clip-rule="evenodd" d="M13 26C20.1797 26 26 20.1797 26 13C26 5.8203 20.1797 0 13 0C5.8203 0 0 5.8203 0 13C0 20.1797 5.8203 26 13 26ZM8.411 9.529L12.974 3.25L17.498 9.49L19.448 18.811L12.974 22.75L6.5 18.811L8.411 9.529ZM8.996 11.323L7.553 18.382L12.272 21.268L8.996 11.323ZM12.974 4.888L9.464 9.724L12.974 20.332L16.484 9.724L12.974 4.888ZM16.913 11.323L13.637 21.268L18.356 18.382L16.913 11.323Z" fill="currentColor"/>
</svg>
