<svg width="18" height="18" viewBox="0 0 18 18" fill="none" xmlns="http://www.w3.org/2000/svg">
<path d="M6.82142 7.24885C8.07684 7.60511 9.92129 8.58021 11.8168 9.95698C14.8592 12.1669 16.8783 14.577 16.3247 15.3385C15.7783 16.09 8.95826 11.4537 5.85129 9.20402C5.81393 9.17662 5.77112 9.14595 5.73242 9.11824L5.71645 9.10679C5.53406 8.97479 5.37154 8.85486 5.22464 8.74557C5.0529 8.78744 4.87548 8.81582 4.69167 8.81582C4.29496 8.81582 3.92593 8.70795 3.60232 8.52769C3.58859 8.52012 3.57482 8.51273 3.56109 8.50536C3.51946 8.48301 3.47822 8.46088 3.4398 8.43473C2.81671 9.43064 1.58487 10.7424 0 12.0405V16C0 17.1046 0.89543 18 2 18H3.32935L3.60231 9.61417C3.92592 9.79371 4.29424 9.90159 4.69166 9.90159C4.87547 9.90159 5.05289 9.87391 5.22463 9.83133C5.37153 9.94133 5.53334 10.0606 5.71715 10.1933C5.75902 10.2238 5.8087 10.2593 5.85199 10.2898L6.0978 18H16C17.1046 18 18 17.1046 18 16V2C18 0.895431 17.1046 0 16 0H6.06307C6.11911 1.60024 6.14155 3.12947 6.14155 4.24408C6.14155 4.47259 6.14083 4.67627 6.138 4.8615C6.62413 5.27453 6.9378 5.8813 6.9378 6.56827C6.9378 6.80743 6.89097 7.03311 6.82142 7.24885Z" fill="#9198A5"/>
<path d="M3.26909 0H2C0.895431 0 0 0.89543 0 2V8.41636C0.733317 7.81996 1.41174 7.28102 1.9658 6.85001C2.14535 6.71092 2.30573 6.58672 2.45264 6.47459C2.49309 5.52221 3.12257 4.73021 3.98909 4.4435C3.61654 3.42969 3.35021 1.84307 3.26909 0Z" fill="currentColor"/>
</svg>
