<svg width="32" height="32" viewBox="0 0 32 32" fill="none" xmlns="http://www.w3.org/2000/svg">
<path fill-rule="evenodd" clip-rule="evenodd" d="M12.1278 31.5196C20.7009 33.6584 29.3841 28.4421 31.5198 19.8716C33.6588 11.2981 28.4401 2.61875 19.8689 0.479551C11.2977 -1.65965 2.61882 3.55907 0.479781 12.1304C-1.65926 20.7018 3.55466 29.3807 12.1278 31.5196ZM22.7943 8H25.5868L19.7755 13.7547C17.6698 15.8377 14.2585 15.8377 12.1528 13.7547L6.33774 8H9.13396L13.5491 12.3698C14.8887 13.6906 17.0358 13.6906 18.3755 12.3698L22.7943 8ZM9.09622 24H6.3L12.149 18.2113C14.2547 16.1283 17.666 16.1283 19.7717 18.2113L25.6207 24H22.8283L18.3754 19.5925C17.0358 18.2717 14.8887 18.2717 13.549 19.5925L9.09622 24Z" fill="currentColor"/>
</svg>
